<svg width="37" height="42" viewBox="0 0 37 42" fill="none" xmlns="http://www.w3.org/2000/svg">
<path d="M18.8184 41.1216V26.1033C18.8184 19.1901 20.3083 13.4688 23.2882 8.93947C26.3872 4.41013 30.8569 1.43031 36.6974 0V6.25763C33.1216 7.21117 30.5589 8.99907 29.0094 11.6213C27.4599 14.1244 26.566 17.4022 26.3276 21.4547H33.1216V41.1216H18.8184ZM0 41.1216V26.1033C0 19.1901 1.48991 13.4688 4.46974 8.93947C7.56876 4.41013 12.0385 1.43031 17.8789 0V6.25763C14.3032 7.21117 11.7405 8.99907 10.191 11.6213C8.64149 14.1244 7.74754 17.4022 7.50916 21.4547H14.3032V41.1216H0Z" fill="white"/>
</svg>
