<svg width="217" height="208" viewBox="0 0 217 208" fill="none" xmlns="http://www.w3.org/2000/svg">
<path opacity="0.15" d="M105.506 7.65012e-06L105.506 88.6243C105.506 129.42 96.7136 163.181 79.1294 189.909C60.8419 216.637 34.4656 234.221 0.000657127 242.662V205.735C21.1017 200.108 36.2241 189.557 45.3678 174.083C54.5116 159.313 59.7868 139.97 61.1936 116.056H21.1017L21.1017 7.65012e-06L105.506 7.65012e-06ZM216.555 7.65012e-06L216.555 88.6243C216.555 129.42 207.763 163.181 190.178 189.909C171.891 216.637 145.515 234.221 111.05 242.662L111.05 205.735C132.151 200.108 147.273 189.557 156.417 174.083C165.561 159.313 170.836 139.97 172.243 116.056L132.151 116.056L132.151 7.65012e-06L216.555 7.65012e-06Z" fill="white"/>
</svg>
