<svg width="1920" height="1149" viewBox="0 0 1920 1149" fill="none" xmlns="http://www.w3.org/2000/svg">
<path d="M482.379 273.292C321.177 148.17 52.7508 55.7423 -34.9896 36.9863C-38.8142 36.1688 -34.9897 70.699 -35.5084 74.4891C-52.5493 199.011 -39.4131 1071.27 -34.9896 1147.55C-34.8004 1150.81 32.5936 1147.55 35.9397 1147.55H1919.37C1921.31 1147.55 1924.02 286.349 1919.66 249.678C1919.51 248.507 1918.91 247.969 1918.09 247.097C1543.26 -155.514 1172.48 21.4326 983.307 167.766C898.034 233.725 794.912 342.356 687.075 356.286C673.249 358.071 660.299 358.818 648.324 358.809C585.528 358.762 531.542 311.451 482.379 273.292Z" fill="#F5F8FD"/>
</svg>
