<svg width="23" height="23" viewBox="0 0 23 23" fill="none" xmlns="http://www.w3.org/2000/svg">
<path d="M14.1308 1.88379H5.6534C5.15377 1.88379 4.6746 2.08227 4.3213 2.43556C3.96801 2.78886 3.76953 3.26803 3.76953 3.76766V18.8386C3.76953 19.3383 3.96801 19.8174 4.3213 20.1707C4.6746 20.524 5.15377 20.7225 5.6534 20.7225H16.9566C17.4563 20.7225 17.9354 20.524 18.2887 20.1707C18.642 19.8174 18.8405 19.3383 18.8405 18.8386V6.59347L14.1308 1.88379Z" stroke="#DE392E" stroke-width="1.88387" stroke-linecap="round" stroke-linejoin="round"/>
<path d="M13.1855 1.88379V5.65153C13.1855 6.15116 13.384 6.63033 13.7373 6.98363C14.0906 7.33692 14.5698 7.5354 15.0694 7.5354H18.8372" stroke="#DE392E" stroke-width="1.88387" stroke-linecap="round" stroke-linejoin="round"/>
<path d="M9.41512 8.47754H7.53125" stroke="#DE392E" stroke-width="1.88387" stroke-linecap="round" stroke-linejoin="round"/>
<path d="M15.0667 12.2461H7.53125" stroke="#DE392E" stroke-width="1.88387" stroke-linecap="round" stroke-linejoin="round"/>
<path d="M15.0667 16.0137H7.53125" stroke="#DE392E" stroke-width="1.88387" stroke-linecap="round" stroke-linejoin="round"/>
</svg>
