<svg width="23" height="23" viewBox="0 0 23 23" fill="none" xmlns="http://www.w3.org/2000/svg">
<path d="M14.7543 19.62V17.7756C14.7543 16.7973 14.3656 15.8591 13.6739 15.1673C12.9821 14.4755 12.0439 14.0869 11.0656 14.0869H5.53247C4.55416 14.0869 3.61592 14.4755 2.92415 15.1673C2.23238 15.8591 1.84375 16.7973 1.84375 17.7756V19.62" stroke="#6E6E6E" stroke-width="1.84436" stroke-linecap="round" stroke-linejoin="round"/>
<path d="M8.2981 10.3979C10.3353 10.3979 11.9868 8.74645 11.9868 6.70923C11.9868 4.672 10.3353 3.02051 8.2981 3.02051C6.26087 3.02051 4.60938 4.672 4.60938 6.70923C4.60938 8.74645 6.26087 10.3979 8.2981 10.3979Z" stroke="#6E6E6E" stroke-width="1.84436" stroke-linecap="round" stroke-linejoin="round"/>
<path d="M20.288 19.6202V17.7759C20.2874 16.9586 20.0154 16.1646 19.5147 15.5187C19.0139 14.8727 18.3128 14.4114 17.5215 14.207" stroke="#6E6E6E" stroke-width="1.84436" stroke-linecap="round" stroke-linejoin="round"/>
<path d="M14.7559 3.1416C15.5493 3.34476 16.2526 3.80622 16.7548 4.45323C17.257 5.10024 17.5296 5.896 17.5296 6.71505C17.5296 7.5341 17.257 8.32986 16.7548 8.97687C16.2526 9.62388 15.5493 10.0853 14.7559 10.2885" stroke="#6E6E6E" stroke-width="1.84436" stroke-linecap="round" stroke-linejoin="round"/>
</svg>
