<svg width="23" height="23" viewBox="0 0 23 23" fill="none" xmlns="http://www.w3.org/2000/svg">
<path d="M18.8654 9.4327C18.8654 14.1429 13.6401 19.0485 11.8854 20.5635C11.7219 20.6864 11.523 20.7529 11.3184 20.7529C11.1139 20.7529 10.9149 20.6864 10.7515 20.5635C8.99681 19.0485 3.77148 14.1429 3.77148 9.4327C3.77148 7.43112 4.56661 5.51152 5.98194 4.09619C7.39726 2.68087 9.31686 1.88574 11.3184 1.88574C13.32 1.88574 15.2396 2.68087 16.6549 4.09619C18.0703 5.51152 18.8654 7.43112 18.8654 9.4327Z" stroke="#6E6E6E" stroke-width="1.88674" stroke-linecap="round" stroke-linejoin="round"/>
<path d="M11.3203 12.2637C12.8834 12.2637 14.1504 10.9966 14.1504 9.43362C14.1504 7.8706 12.8834 6.60352 11.3203 6.60352C9.75732 6.60352 8.49023 7.8706 8.49023 9.43362C8.49023 10.9966 9.75732 12.2637 11.3203 12.2637Z" stroke="#6E6E6E" stroke-width="1.88674" stroke-linecap="round" stroke-linejoin="round"/>
</svg>
