<svg width="213" height="162" viewBox="0 0 213 162" fill="none" xmlns="http://www.w3.org/2000/svg">
<g opacity="0.2">
<path d="M39.1523 115.653H81.5583" stroke="#C3C3C3" stroke-width="10.6015" stroke-linecap="round" stroke-linejoin="round"/>
<path d="M23.252 136.819H118.665" stroke="#C3C3C3" stroke-width="10.6015" stroke-linecap="round" stroke-linejoin="round"/>
<path d="M81.5644 136.817C91.4053 136.817 100.843 132.914 107.802 125.968C114.76 119.022 118.67 109.601 118.67 99.7774C118.67 89.954 114.76 80.533 107.802 73.5868C100.843 66.6406 91.4053 62.7383 81.5644 62.7383H76.2637" stroke="#C3C3C3" stroke-width="10.6015" stroke-linecap="round" stroke-linejoin="round"/>
<path d="M55.0547 94.4863H65.6562" stroke="#C3C3C3" stroke-width="10.6015" stroke-linecap="round" stroke-linejoin="round"/>
<path d="M55.0605 83.9046C52.2488 83.9046 49.5523 82.7896 47.5641 80.805C45.5759 78.8204 44.459 76.1287 44.459 73.322V52.1567H76.2635V73.322C76.2635 76.1287 75.1465 78.8204 73.1584 80.805C71.1702 82.7896 68.4737 83.9046 65.662 83.9046H55.0605Z" stroke="#C3C3C3" stroke-width="10.6015" stroke-linecap="round" stroke-linejoin="round"/>
<path d="M70.951 52.1555V36.2815C70.951 34.8782 70.3926 33.5323 69.3985 32.54C68.4044 31.5477 67.0561 30.9902 65.6503 30.9902H55.0488C53.6429 30.9902 52.2947 31.5477 51.3006 32.54C50.3065 33.5323 49.748 34.8782 49.748 36.2815V52.1555" stroke="#C3C3C3" stroke-width="10.6015" stroke-linecap="round" stroke-linejoin="round"/>
<path d="M28.5865 30.2645L33.3543 16.6365L23.6882 5.45635L9.48543 8.1716L4.7176 21.7995L14.3838 32.9797L28.5865 30.2645Z" fill="#DE392E"/>
<path d="M203.164 140.132L200.426 113.122L175.042 101.747L153.004 117.655L155.742 144.665L181.126 156.039L203.164 140.132Z" fill="#DE392E"/>
</g>
</svg>
