<svg width="21" height="15" viewBox="0 0 21 15" fill="none" xmlns="http://www.w3.org/2000/svg">
<path d="M2.72224 13.8333H13.8335C15.0608 13.8333 16.0557 12.8385 16.0557 11.6111V3.35715V2.72222C16.0557 1.49492 15.0608 0.5 13.8335 0.5H2.72224C1.49493 0.5 0.5 1.49492 0.5 2.72222V11.6111C0.5 12.8385 1.49493 13.8333 2.72224 13.8333Z" stroke="white" stroke-linecap="round" stroke-linejoin="round"/>
<path d="M4.38954 4.94412C4.69637 4.94412 4.94511 4.69539 4.94511 4.38856C4.94511 4.08174 4.69637 3.83301 4.38954 3.83301C4.08272 3.83301 3.83398 4.08174 3.83398 4.38856C3.83398 4.69539 4.08272 4.94412 4.38954 4.94412Z" stroke="white" stroke-linejoin="round"/>
<path d="M16.0547 4.94467L20.4992 1.61133V12.7225L16.0547 9.38911" stroke="white" stroke-linejoin="round"/>
</svg>
