<svg width="65" height="51" viewBox="0 0 65 51" fill="none" xmlns="http://www.w3.org/2000/svg">
<path d="M38.4242 11.4147V17.5311M26.1914 11.4147V17.5311" stroke="#131313" stroke-width="2.29366" stroke-linecap="round" stroke-linejoin="round"/>
<path d="M46.0698 28.2348V26.7057C46.0698 20.9391 46.0698 18.0558 44.2783 16.2644C42.4869 14.4729 39.6035 14.4729 33.8369 14.4729H30.7787C25.0121 14.4729 22.1288 14.4729 20.3374 16.2644C18.5459 18.0558 18.5459 20.9391 18.5459 26.7057V29.7639C18.5459 35.5305 18.5459 38.4139 20.3374 40.2053C22.1288 41.9968 25.0121 41.9968 30.7787 41.9968" stroke="#131313" stroke-width="2.29366" stroke-linecap="round" stroke-linejoin="round"/>
<path d="M18.5459 23.6475H46.0698" stroke="#131313" stroke-width="2.29366" stroke-linecap="round" stroke-linejoin="round"/>
<path d="M33.8369 38.174C33.8369 38.174 35.8989 38.9488 36.8951 41.9968C36.8951 41.9968 41.7523 34.3512 46.0697 32.8221" stroke="#DE392E" stroke-width="2.29366" stroke-linecap="round" stroke-linejoin="round"/>
<path d="M6.29217 6.67294L7.34154 3.66815L5.21407 1.20306L2.08812 1.80173L1.03875 4.80652L3.16622 7.27162L6.29217 6.67294Z" fill="#DE392E"/>
<path d="M62.3242 45.8972L61.7215 39.9419L56.1348 37.4339L51.2843 40.9413L51.8869 46.8967L57.4737 49.4046L62.3242 45.8972Z" fill="#DE392E"/>
</svg>
