<svg width="65" height="51" viewBox="0 0 65 51" fill="none" xmlns="http://www.w3.org/2000/svg">
<path d="M35.3662 32.8221C35.3662 29.9388 35.3662 28.4972 36.262 27.6014C37.1577 26.7057 38.5993 26.7057 41.4826 26.7057C44.3659 26.7057 45.8075 26.7057 46.7033 27.6014C47.599 28.4972 47.599 29.9388 47.599 32.8221C47.599 35.7054 47.599 37.147 46.7033 38.0428C45.8075 38.9385 44.3659 38.9385 41.4826 38.9385C38.5993 38.9385 37.1577 38.9385 36.262 38.0428C35.3662 37.147 35.3662 35.7054 35.3662 32.8221Z" stroke="#131313" stroke-width="2.29366"/>
<path d="M35.3662 32.8222V26.4956C35.3662 20.8885 39.213 16.1333 44.5408 14.4729" stroke="#131313" stroke-width="2.29366" stroke-linecap="round"/>
<path d="M17.0176 32.8221C17.0176 29.9388 17.0176 28.4972 17.9133 27.6014C18.809 26.7057 20.2507 26.7057 23.134 26.7057C26.0173 26.7057 27.459 26.7057 28.3547 27.6014C29.2504 28.4972 29.2504 29.9388 29.2504 32.8221C29.2504 35.7054 29.2504 37.147 28.3547 38.0428C27.459 38.9385 26.0173 38.9385 23.134 38.9385C20.2507 38.9385 18.809 38.9385 17.9133 38.0428C17.0176 37.147 17.0176 35.7054 17.0176 32.8221Z" stroke="#131313" stroke-width="2.29366"/>
<path d="M17.0176 32.8222V26.4956C17.0176 20.8885 20.8644 16.1333 26.1922 14.4729" stroke="#131313" stroke-width="2.29366" stroke-linecap="round"/>
<path d="M6.29217 6.67294L7.34154 3.66815L5.21407 1.20306L2.08812 1.80173L1.03875 4.80652L3.16622 7.27162L6.29217 6.67294Z" fill="#DE392E"/>
<path d="M62.3242 45.8972L61.7215 39.9419L56.1348 37.4339L51.2843 40.9413L51.8869 46.8967L57.4737 49.4046L62.3242 45.8972Z" fill="#DE392E"/>
</svg>
