<svg width="65" height="51" viewBox="0 0 65 51" fill="none" xmlns="http://www.w3.org/2000/svg">
<path d="M32.3086 41.9968L29.2504 32.8221H17.0176L20.0758 41.9968H32.3086ZM32.3086 41.9968H38.425" stroke="#131313" stroke-width="2.29366" stroke-linecap="round" stroke-linejoin="round"/>
<path d="M32.308 28.2349V27.4703C32.308 24.587 32.308 23.1453 31.4123 22.2496C30.5165 21.3539 29.0749 21.3539 26.1916 21.3539C23.3083 21.3539 21.8666 21.3539 20.9709 22.2496C20.0752 23.1453 20.0752 24.587 20.0752 27.4703V28.2349" stroke="#131313" stroke-width="2.29366" stroke-linecap="round" stroke-linejoin="round"/>
<path d="M43.0119 28.2348C43.0119 29.9239 41.6428 31.2931 39.9537 31.2931C38.2647 31.2931 36.8955 29.9239 36.8955 28.2348C36.8955 26.5458 38.2647 25.1766 39.9537 25.1766C41.6428 25.1766 43.0119 26.5458 43.0119 28.2348Z" stroke="#DE392E" stroke-width="2.29366"/>
<path d="M29.2502 14.4729C29.2502 16.1619 27.881 17.5311 26.192 17.5311C24.503 17.5311 23.1338 16.1619 23.1338 14.4729C23.1338 12.7839 24.503 11.4147 26.192 11.4147C27.881 11.4147 29.2502 12.7839 29.2502 14.4729Z" stroke="#DE392E" stroke-width="2.29366"/>
<path d="M35.3662 35.1157H44.5408C46.2299 35.1157 47.599 36.4849 47.599 38.1739V38.9385C47.599 40.6275 46.2299 41.9967 44.5408 41.9967H43.0117" stroke="#131313" stroke-width="2.29366" stroke-linecap="round"/>
<path d="M6.29217 6.67294L7.34154 3.66815L5.21407 1.20306L2.08812 1.80173L1.03875 4.80652L3.16622 7.27162L6.29217 6.67294Z" fill="#DE392E"/>
<path d="M62.3242 45.8972L61.7215 39.9419L56.1348 37.4339L51.2843 40.9413L51.8869 46.8967L57.4737 49.4046L62.3242 45.8972Z" fill="#DE392E"/>
</svg>
