<svg width="65" height="51" viewBox="0 0 65 51" fill="none" xmlns="http://www.w3.org/2000/svg">
<path d="M26.1914 28.9994H38.4242M26.1914 21.3539H32.3078" stroke="#DE392E" stroke-width="2.29366" stroke-linecap="round" stroke-linejoin="round"/>
<path d="M23.2851 37.4094C21.2971 37.2138 19.8078 36.6167 18.809 35.6179C17.0176 33.8266 17.0176 30.9431 17.0176 25.1766V24.412C17.0176 18.6454 17.0176 15.7621 18.809 13.9707C20.6005 12.1792 23.4838 12.1792 29.2504 12.1792H35.3668C41.1334 12.1792 44.0168 12.1792 45.8082 13.9707C47.5997 15.7621 47.5997 18.6454 47.5997 24.412V25.1766C47.5997 30.9431 47.5997 33.8266 45.8082 35.6179C44.0168 37.4094 41.1334 37.4094 35.3668 37.4094C34.5098 37.4285 33.8272 37.4937 33.1567 37.6464C31.3242 38.0683 29.6273 39.006 27.9505 39.8237C25.5611 40.9887 24.3665 41.5713 23.6167 41.0259C22.1824 39.9577 23.5844 36.6478 23.8985 35.1158" stroke="#131313" stroke-width="2.29366" stroke-linecap="round"/>
<path d="M6.29217 6.67294L7.34154 3.66815L5.21407 1.20306L2.08812 1.80173L1.03875 4.80652L3.16622 7.27162L6.29217 6.67294Z" fill="#DE392E"/>
<path d="M62.3242 45.8972L61.7215 39.9419L56.1348 37.4339L51.2843 40.9413L51.8869 46.8967L57.4737 49.4046L62.3242 45.8972Z" fill="#DE392E"/>
</svg>
