<svg width="54" height="36" viewBox="0 0 54 36" fill="none" xmlns="http://www.w3.org/2000/svg">
<path d="M28.2115 22.2483L29.979 32.1953C29.9988 32.3124 29.9823 32.4328 29.9319 32.5403C29.8814 32.6479 29.7993 32.7374 29.6966 32.7971C29.5938 32.8567 29.4753 32.8835 29.3569 32.874C29.2385 32.8644 29.1258 32.8189 29.034 32.7436L24.8573 29.6088C24.6557 29.4582 24.4108 29.3768 24.1591 29.3768C23.9074 29.3768 23.6624 29.4582 23.4608 29.6088L19.2771 32.7425C19.1854 32.8176 19.0728 32.863 18.9546 32.8726C18.8363 32.8822 18.7179 32.8554 18.6153 32.796C18.5126 32.7365 18.4305 32.6472 18.3799 32.5398C18.3293 32.4325 18.3127 32.3123 18.3321 32.1953L20.0985 22.2483" stroke="#131313" stroke-width="2.33333" stroke-linecap="round" stroke-linejoin="round"/>
<path d="M24.1543 23.5433C28.0203 23.5433 31.1543 20.4093 31.1543 16.5433C31.1543 12.6773 28.0203 9.54333 24.1543 9.54333C20.2883 9.54333 17.1543 12.6773 17.1543 16.5433C17.1543 20.4093 20.2883 23.5433 24.1543 23.5433Z" stroke="#DE392E" stroke-width="2.33333" stroke-linecap="round" stroke-linejoin="round"/>
<path d="M6.29217 6.67294L7.34154 3.66815L5.21407 1.20306L2.08812 1.80173L1.03875 4.80652L3.16622 7.27162L6.29217 6.67294Z" fill="#DE392E"/>
<path d="M51.3183 30.8972L50.7157 24.9419L45.1289 22.4339L40.2784 25.9413L40.881 31.8967L46.4678 34.4046L51.3183 30.8972Z" fill="#DE392E"/>
</svg>
