<svg width="54" height="36" viewBox="0 0 54 36" fill="none" xmlns="http://www.w3.org/2000/svg">
<path d="M15.2207 25.5004H24.554" stroke="#DE392E" stroke-width="2.33333" stroke-linecap="round" stroke-linejoin="round"/>
<path d="M11.7207 30.167H32.7207" stroke="#131313" stroke-width="2.33333" stroke-linecap="round" stroke-linejoin="round"/>
<path d="M24.5534 30.1671C26.7193 30.1671 28.7965 29.3067 30.3281 27.7751C31.8596 26.2436 32.7201 24.1663 32.7201 22.0004C32.7201 19.8345 31.8596 17.7572 30.3281 16.2257C28.7965 14.6942 26.7193 13.8337 24.5534 13.8337H23.3867" stroke="#131313" stroke-width="2.33333" stroke-linecap="round" stroke-linejoin="round"/>
<path d="M18.7207 20.8337H21.054" stroke="#131313" stroke-width="2.33333" stroke-linecap="round" stroke-linejoin="round"/>
<path d="M18.7201 18.5004C18.1012 18.5004 17.5077 18.2545 17.0701 17.8169C16.6326 17.3794 16.3867 16.7859 16.3867 16.167V11.5004H23.3867V16.167C23.3867 16.7859 23.1409 17.3794 22.7033 17.8169C22.2657 18.2545 21.6722 18.5004 21.0534 18.5004H18.7201Z" stroke="#131313" stroke-width="2.33333" stroke-linecap="round" stroke-linejoin="round"/>
<path d="M22.2214 11.5004V8.00041C22.2214 7.69099 22.0984 7.39424 21.8796 7.17545C21.6609 6.95666 21.3641 6.83374 21.0547 6.83374H18.7214C18.4119 6.83374 18.1152 6.95666 17.8964 7.17545C17.6776 7.39424 17.5547 7.69099 17.5547 8.00041V11.5004" stroke="#131313" stroke-width="2.33333" stroke-linecap="round" stroke-linejoin="round"/>
<path d="M6.29217 6.67294L7.34154 3.66815L5.21407 1.20306L2.08812 1.80173L1.03875 4.80652L3.16622 7.27162L6.29217 6.67294Z" fill="#DE392E"/>
<path d="M51.3183 30.8972L50.7157 24.9419L45.1289 22.4339L40.2784 25.9413L40.881 31.8967L46.4678 34.4046L51.3183 30.8972Z" fill="#DE392E"/>
</svg>
