<svg width="54" height="36" viewBox="0 0 54 36" fill="none" xmlns="http://www.w3.org/2000/svg">
<path d="M33.8789 16.167V23.167" stroke="#DE392E" stroke-width="2.33333" stroke-linecap="round" stroke-linejoin="round"/>
<path d="M33.2022 17.2423C33.411 17.1502 33.5883 16.9988 33.7119 16.8069C33.8356 16.615 33.9002 16.3911 33.8979 16.1628C33.8955 15.9346 33.8262 15.712 33.6986 15.5227C33.571 15.3335 33.3907 15.1858 33.18 15.098L23.1805 10.5433C22.8765 10.4046 22.5463 10.3329 22.2122 10.3329C21.878 10.3329 21.5478 10.4046 21.2438 10.5433L11.2455 15.0933C11.0378 15.1843 10.8611 15.3338 10.737 15.5236C10.613 15.7134 10.5469 15.9352 10.5469 16.162C10.5469 16.3887 10.613 16.6106 10.737 16.8004C10.8611 16.9901 11.0378 17.1397 11.2455 17.2306L21.2438 21.79C21.5478 21.9286 21.878 22.0004 22.2122 22.0004C22.5463 22.0004 22.8765 21.9286 23.1805 21.79L33.2022 17.2423Z" stroke="#131313" stroke-width="2.33333" stroke-linecap="round" stroke-linejoin="round"/>
<path d="M15.2129 19.0834V23.1667C15.2129 24.095 15.9504 24.9852 17.2631 25.6416C18.5759 26.298 20.3564 26.6667 22.2129 26.6667C24.0694 26.6667 25.8499 26.298 27.1626 25.6416C28.4754 24.9852 29.2129 24.095 29.2129 23.1667V19.0834" stroke="#131313" stroke-width="2.33333" stroke-linecap="round" stroke-linejoin="round"/>
<path d="M6.29217 6.67294L7.34154 3.66815L5.21407 1.20306L2.08812 1.80173L1.03875 4.80652L3.16622 7.27162L6.29217 6.67294Z" fill="#DE392E"/>
<path d="M51.3183 30.8972L50.7157 24.9419L45.1289 22.4339L40.2784 25.9413L40.881 31.8967L46.4678 34.4046L51.3183 30.8972Z" fill="#DE392E"/>
</svg>
