<svg width="54" height="36" viewBox="0 0 54 36" fill="none" xmlns="http://www.w3.org/2000/svg">
<path d="M15.2109 30.1671V9.16707C15.2109 8.54824 15.4568 7.95474 15.8944 7.51716C16.3319 7.07957 16.9254 6.83374 17.5443 6.83374H26.8776C27.4964 6.83374 28.0899 7.07957 28.5275 7.51716C28.9651 7.95474 29.2109 8.54824 29.2109 9.16707V30.1671H15.2109Z" stroke="#131313" stroke-width="2.33333" stroke-linecap="round" stroke-linejoin="round"/>
<path d="M15.2116 18.5004H12.8783C12.2594 18.5004 11.6659 18.7462 11.2283 19.1838C10.7908 19.6214 10.5449 20.2149 10.5449 20.8337V27.8337C10.5449 28.4525 10.7908 29.046 11.2283 29.4836C11.6659 29.9212 12.2594 30.167 12.8783 30.167H15.2116" stroke="#131313" stroke-width="2.33333" stroke-linecap="round" stroke-linejoin="round"/>
<path d="M29.2109 15.0004H31.5443C32.1631 15.0004 32.7566 15.2462 33.1942 15.6838C33.6318 16.1214 33.8776 16.7149 33.8776 17.3337V27.8337C33.8776 28.4525 33.6318 29.046 33.1942 29.4836C32.7566 29.9212 32.1631 30.167 31.5443 30.167H29.2109" stroke="#131313" stroke-width="2.33333" stroke-linecap="round" stroke-linejoin="round"/>
<path d="M19.877 11.5004H24.5436" stroke="#131313" stroke-width="2.33333" stroke-linecap="round" stroke-linejoin="round"/>
<path d="M19.877 16.167H24.5436" stroke="#DE392E" stroke-width="2.33333" stroke-linecap="round" stroke-linejoin="round"/>
<path d="M19.877 20.8337H24.5436" stroke="#131313" stroke-width="2.33333" stroke-linecap="round" stroke-linejoin="round"/>
<path d="M19.877 25.5004H24.5436" stroke="#DE392E" stroke-width="2.33333" stroke-linecap="round" stroke-linejoin="round"/>
<path d="M6.29217 6.67294L7.34154 3.66815L5.21407 1.20306L2.08812 1.80173L1.03875 4.80652L3.16622 7.27162L6.29217 6.67294Z" fill="#DE392E"/>
<path d="M51.3183 30.8972L50.7157 24.9419L45.1289 22.4339L40.2784 25.9413L40.881 31.8967L46.4678 34.4046L51.3183 30.8972Z" fill="#DE392E"/>
</svg>
